<svg xmlns="http://www.w3.org/2000/svg" width="29" height="33.969" viewBox="0 0 29 33.969">
  <defs>
    <style>
      .cls-1 {
        fill: #fff;
        fill-rule: evenodd;
      }
    </style>
  </defs>
  <path id="Apple_logo" data-name="Apple logo" class="cls-1" d="M275.226,383.07a7.671,7.671,0,0,1,3.849-6.468,8.474,8.474,0,0,0-6.516-3.369c-2.775-.268-5.415,1.558-6.821,1.558s-3.58-1.517-5.88-1.476a8.791,8.791,0,0,0-7.374,4.258c-3.14,5.2-.8,12.9,2.26,17.121,1.5,2.061,3.28,4.382,5.625,4.3,2.257-.084,3.11-1.391,5.837-1.391s3.5,1.391,5.882,1.348c2.428-.041,3.967-2.1,5.453-4.173a18.42,18.42,0,0,0,2.468-4.832,7.575,7.575,0,0,1-4.783-6.875m-4.485-12.627a7.256,7.256,0,0,0,1.853-5.425,8.132,8.132,0,0,0-5.249,2.574,6.908,6.908,0,0,0-1.889,5.256,6.737,6.737,0,0,0,5.285-2.405" transform="translate(-251 -365.031)"/>
</svg>
